<svg width="2129" height="1000" viewBox="0 0 2129 1000" fill="none" xmlns="http://www.w3.org/2000/svg">
<path d="M418.275 181.921L307.583 258.504L372.76 281.28L303.419 305.504L279.195 374.773L254.971 305.504L244.832 301.883L150 367.603H227.126V524.462C259.714 538.693 363.237 567.914 511.008 458.67C503.943 446.901 506.7 431.717 517.453 423.185L534.109 410.004L547.615 398.091C557.748 389.257 566.532 378.985 573.686 367.603C577.307 362.28 580.349 356.74 583.354 350.874C590.29 337.176 596.255 323.007 601.205 308.473L418.275 181.921ZM412.627 474.747H363.418V425.502H412.627V474.747ZM412.627 416.812H363.418V367.567H412.627V416.812ZM471.539 474.747H422.258V425.502H471.503L471.539 474.747ZM471.539 416.812H422.258V367.567H471.503L471.539 416.812Z" fill="#80CAEF"/>
<path d="M843.881 504.04C840.984 493.395 837.689 483.039 834.068 473.045L832.547 468.881L832.149 467.976L824.907 449.871C814.976 427.024 802.849 405.196 788.697 384.694L781.999 375.135L780.659 373.035L780.116 372.238L779.79 371.731L769.869 360.035C753.863 340.307 735.896 322.254 716.242 306.156L715.663 305.649L715.844 305.323L708.602 299.855L703.135 295.365L702.881 295.619H702.7C687.607 284.282 671.718 274.045 655.157 264.986L634.518 253.725L628.073 276.319C624.053 290.405 619.781 304.454 614.856 318.141C610.891 329.336 606.359 340.321 601.278 351.055C598.526 356.849 595.629 362.389 592.587 367.784C583.695 383.857 572.066 398.255 558.225 410.33L544.32 422.641L548.195 427.457L609.389 505.018L660.878 570.195L665.948 576.531L678.73 565.669L680.431 564.437C719.175 535.977 773.49 530.002 826.609 527.866L850 526.816L843.881 504.04ZM669.315 549.085L668.446 549.302L659.213 537.57L684.559 514.794L653.745 530.582L625.828 495.278L658.706 460.661L619.527 487.311L609.389 474.421L586.866 445.888L609.389 417.319L614.567 410.801L609.389 415.617L582.123 440.058L570.21 425.031C570.241 424.888 570.241 424.74 570.21 424.597C585.978 410.9 599.183 394.508 609.208 376.185C610.837 373.469 612.358 370.572 613.806 367.748C620.295 355.287 625.909 342.389 630.607 329.149C636.654 313.036 641.47 296.886 645.996 281.425C660.274 288.859 673.943 297.406 686.877 306.989L666.346 353.409L662.399 362.244L669.243 355.509L704.33 320.603C723.026 335.937 740.13 353.115 755.385 371.876L716.061 420.288L773.164 395.448C786.664 414.992 798.255 435.787 807.78 457.547L751.619 476.775L816.542 479.49C819.982 489.158 823.133 498.971 825.848 508.928C774.214 511.173 713.816 516.569 669.315 549.085Z" fill="#80CAEF"/>
<path d="M660.733 581.637L649.545 590.508C644.637 594.312 637.587 593.491 633.685 588.661L609.388 557.847L525.6 451.573C523.73 449.249 522.873 446.272 523.22 443.31C523.567 440.348 525.09 437.65 527.447 435.822L538.599 426.95L609.388 516.641L660.733 581.637Z" fill="#80CAEF"/>
<path d="M545.371 502.737C380.618 629.469 273.8 582.397 227.054 545.79C216.846 538.076 207.66 529.097 199.716 519.067C208.276 525.343 217.462 530.718 227.126 535.108C353.859 594.093 518.431 468.446 518.431 468.446L545.371 502.737Z" fill="#80CAEF"/>
<path d="M578.176 544.233C535.883 580.189 497.176 604.268 461.944 619.222C386.737 651.304 327.39 642.324 282.888 619.222C262.203 608.354 243.38 594.261 227.126 577.473C208.153 558.412 192.272 536.507 180.054 512.549C193.621 529.921 209.452 545.399 227.126 558.572C361.571 657.206 522.993 530.328 549.571 507.878L578.176 544.233Z" fill="#80CAEF"/>
<path d="M603.305 575.879C585.987 591.44 567.753 605.95 548.701 619.331C392.639 727.959 292.737 664.701 248.163 619.331C240.621 611.668 233.65 603.462 227.307 594.781C223.686 589.965 221.839 586.742 221.296 585.801C223.396 587.865 225.315 589.893 227.307 591.812C237.784 602.083 249.245 611.301 261.525 619.331C338.325 669.445 421.498 650.217 484.502 619.331C520.627 601.363 554.198 578.666 584.331 551.836L603.305 575.879Z" fill="#80CAEF"/>
<path d="M348.681 281.28L297.191 299.312L279.195 350.766L261.163 299.312L252.871 296.415L209.673 281.28L261.163 263.247L279.195 211.794L297.191 263.247L299.545 264.08L348.681 281.28Z" fill="#80CAEF"/>
<path d="M863.5 512.883C863.5 499.341 863.305 484.562 862.914 468.547C862.523 452.401 862.263 441.789 862.133 436.711C861.091 402.857 860.57 377.401 860.57 360.344C860.57 335.214 861.221 313.729 862.523 295.891L836.547 291.789C834.854 284.758 833.682 278.833 833.031 274.016C832.25 269.198 831.859 263.924 831.859 258.195V253.703C834.594 250.318 838.956 246.802 844.945 243.156C851.065 239.51 858.161 236.451 866.234 233.977C874.438 231.503 882.706 230.266 891.039 230.266C906.404 230.266 918.643 233.456 927.758 239.836C936.872 246.216 941.43 256.177 941.43 269.719C941.43 298.104 939.867 345.5 936.742 411.906L948.852 409.172C957.055 394.458 966.169 375.122 976.195 351.164C986.352 327.206 992.992 308.651 996.117 295.5L971.898 291.398C970.206 284.367 968.969 278.443 968.188 273.625C967.536 268.807 967.211 263.534 967.211 257.805V253.312C969.815 250.057 974.438 246.607 981.078 242.961C987.849 239.185 995.596 236.06 1004.32 233.586C1013.04 231.112 1021.64 229.875 1030.1 229.875C1039.35 229.875 1047.74 231.438 1055.3 234.562C1062.85 237.688 1068.84 242.505 1073.27 249.016C1077.82 255.526 1080.1 263.534 1080.1 273.039C1080.1 289.445 1073.14 309.172 1059.2 332.219C1045.4 355.266 1028.8 378.378 1009.4 401.555C1015.78 414.836 1022.61 427.336 1029.91 439.055C1037.2 450.773 1043.64 459.628 1049.24 465.617C1052.11 464.185 1054.78 462.297 1057.25 459.953C1059.85 457.609 1063.17 454.224 1067.21 449.797L1071.51 445.305L1095.53 463.469V467.766C1095.53 488.469 1090.32 505.135 1079.91 517.766C1069.62 530.396 1053.99 536.711 1033.03 536.711C1025.22 536.711 1017.8 535.604 1010.77 533.391C1001 530.396 992.536 524.471 985.375 515.617C978.344 506.763 972.745 496.542 968.578 484.953C964.542 473.234 961.742 461.19 960.18 448.82C953.669 450.383 945.141 451.49 934.594 452.141C933.422 474.406 931.924 499.862 930.102 528.508C919.555 534.237 907.836 537.102 894.945 537.102C883.747 537.102 873.201 535.083 863.305 531.047L863.5 512.883ZM1105.3 470.305C1113.24 472.909 1120.47 474.992 1126.98 476.555C1139.61 425.773 1153.99 365.812 1170.14 296.672L1123.07 291.594C1120.08 283.391 1118.58 274.081 1118.58 263.664C1118.58 255.721 1119.49 247.974 1121.31 240.422C1140.19 236.776 1161.94 234.172 1186.55 232.609C1211.29 230.917 1232.51 230.07 1250.22 230.07C1262.98 230.07 1272.55 230.135 1278.93 230.266L1291.23 237.297C1313.11 297.323 1335.31 378.508 1357.84 480.852C1358.1 481.893 1358.55 483.977 1359.2 487.102C1359.98 490.227 1360.57 493.221 1360.96 496.086C1361.35 498.82 1361.55 501.424 1361.55 503.898C1361.55 514.836 1357.64 523.69 1349.83 530.461C1338.89 534.758 1325.67 536.906 1310.18 536.906C1302.89 536.906 1295.53 536.125 1288.11 534.562C1280.69 533 1275.67 530.591 1273.07 527.336L1275.41 476.945L1270.53 450.773C1262.07 451.294 1252.11 451.555 1240.65 451.555C1228.41 451.555 1216.95 451.164 1206.27 450.383L1203.93 460.93C1198.85 483.586 1194.68 499.667 1191.43 509.172C1188.3 518.677 1183.62 525.708 1177.37 530.266C1171.25 534.823 1162.07 537.102 1149.83 537.102C1141.89 537.102 1133.88 536.06 1125.8 533.977C1117.73 532.023 1110.44 529.354 1103.93 525.969C1097.42 522.583 1092.54 518.938 1089.28 515.031C1089.28 505.656 1090.71 496.737 1093.58 488.273C1096.44 479.81 1100.35 473.82 1105.3 470.305ZM1242.21 298.43H1233.23L1219.16 394.719H1262.91L1242.21 298.43ZM1400.41 377.922C1400.41 347.844 1400.93 321.151 1401.98 297.844L1375.61 293.742C1373.92 288.924 1372.61 283.586 1371.7 277.727C1370.79 271.867 1370.34 266.203 1370.34 260.734C1370.34 256.568 1370.66 252.01 1371.31 247.062C1388.37 241.073 1410.9 236.776 1438.89 234.172C1466.89 231.568 1494.23 230.266 1520.92 230.266C1540.84 230.266 1557.97 231.828 1572.29 234.953C1586.61 238.078 1598.59 245.174 1608.23 256.242C1617.99 267.18 1622.88 283.586 1622.88 305.461C1622.88 314.445 1621.44 324.406 1618.58 335.344C1615.71 346.151 1611.74 356.958 1606.66 367.766C1601.98 377.661 1596.64 387.102 1590.65 396.086C1584.79 404.94 1578.67 412.557 1572.29 418.938C1576.07 428.833 1579.97 437.883 1584.01 446.086C1588.04 454.159 1594.23 463.99 1602.56 475.578L1629.91 464.055C1640.06 472.779 1645.99 484.367 1647.68 498.82C1647.68 499.602 1644.55 503.312 1638.3 509.953C1632.18 516.594 1624.18 522.779 1614.28 528.508C1604.39 534.107 1593.25 536.906 1580.88 536.906C1571.25 536.906 1562.59 535.214 1554.91 531.828C1547.35 528.443 1541.1 522.518 1536.16 514.055C1531.34 505.721 1527.5 495.826 1524.63 484.367C1521.77 472.909 1519.75 461.581 1518.58 450.383L1474.05 448.43C1475.22 458.586 1476.72 469.068 1478.54 479.875C1480.36 490.552 1481.47 496.997 1481.86 499.211C1484.07 512.102 1485.51 520.891 1486.16 525.578C1480.17 529.224 1472.88 532.023 1464.28 533.977C1455.82 535.93 1447.16 536.906 1438.3 536.906C1428.15 536.906 1418.32 535.539 1408.81 532.805C1405.95 521.346 1403.8 501.294 1402.37 472.648C1401.07 443.872 1400.41 412.297 1400.41 377.922ZM1521.9 401.359C1526.46 388.339 1530.04 374.211 1532.64 358.977C1535.38 343.612 1537.85 325.318 1540.06 304.094C1536.29 302.661 1531.34 301.555 1525.22 300.773C1519.1 299.992 1513.17 299.602 1507.45 299.602C1494.42 299.602 1484.66 299.927 1478.15 300.578C1476.72 349.536 1475.15 384.237 1473.46 404.68L1521.9 401.359ZM1681.66 523.43C1681.66 517.831 1681.4 501.229 1680.88 473.625C1679.84 433.26 1679.32 398.365 1679.32 368.938C1679.32 340.161 1679.84 315.812 1680.88 295.891L1649.05 291.789C1647.09 283.846 1645.79 277.271 1645.14 272.062C1644.49 266.724 1644.23 260.604 1644.36 253.703C1646.96 250.448 1651.78 246.997 1658.81 243.352C1665.97 239.576 1674.05 236.451 1683.03 233.977C1692.15 231.503 1700.93 230.266 1709.4 230.266C1724.5 230.266 1736.81 233.651 1746.31 240.422C1755.95 247.193 1761.03 256.958 1761.55 269.719C1761.81 277.271 1761.94 283.716 1761.94 289.055C1761.94 313.664 1760.9 343.352 1758.81 378.117C1756.73 412.753 1753.93 453.703 1750.41 500.969L1748.46 528.508C1738.17 534.237 1726.46 537.102 1713.3 537.102C1702.11 537.102 1691.56 535.083 1681.66 531.047V523.43ZM1815.45 388.469C1815.45 349.016 1816.04 318.742 1817.21 297.648H1817.02L1787.13 293.547C1785.44 288.729 1784.14 283.456 1783.23 277.727C1782.32 271.867 1781.86 266.203 1781.86 260.734C1781.86 256.568 1782.18 252.01 1782.84 247.062C1798.72 241.724 1819.49 237.622 1845.14 234.758C1870.79 231.763 1895.27 230.266 1918.58 230.266C1938.5 230.266 1955.62 231.828 1969.95 234.953C1984.27 237.948 1996.25 244.849 2005.88 255.656C2015.65 266.333 2020.53 282.284 2020.53 303.508C2020.53 311.841 2018.25 321.281 2013.7 331.828C2009.14 342.245 2003.15 352.076 1995.73 361.32C1988.43 370.435 1980.82 377.466 1972.88 382.414C1982.77 384.107 1991.95 387.557 2000.41 392.766C2009.01 397.844 2015.97 404.81 2021.31 413.664C2026.65 422.388 2029.32 432.74 2029.32 444.719C2029.32 460.734 2026.26 474.536 2020.14 486.125C2014.02 497.714 2005.3 507.284 1993.97 514.836C1971.83 529.549 1940.58 536.906 1900.22 536.906C1884.33 536.906 1870.21 536.581 1857.84 535.93C1845.6 535.409 1834.27 534.367 1823.85 532.805C1818.25 502.596 1815.45 454.484 1815.45 388.469ZM1926.59 376.164C1929.97 366.659 1932.84 354.615 1935.18 340.031C1937.65 325.318 1939.15 313.339 1939.67 304.094C1939.02 302.922 1935.7 301.945 1929.71 301.164C1923.72 300.253 1915.97 299.797 1906.47 299.797C1903.47 299.797 1898.46 299.992 1891.43 300.383C1890.39 329.68 1888.83 355.982 1886.74 379.289L1906.47 377.727L1926.59 376.164ZM1916.82 485.734C1927.76 485.734 1935.57 485.279 1940.26 484.367C1943.51 482.414 1946.38 478.898 1948.85 473.82C1951.46 468.742 1953.41 463.208 1954.71 457.219C1956.01 451.099 1956.66 445.63 1956.66 440.812C1954.32 434.042 1942.67 430.656 1921.7 430.656C1912.85 430.656 1902.69 431.242 1891.23 432.414C1888.11 432.805 1885.77 433 1884.2 433L1883.62 461.516C1883.49 464.38 1883.36 467.701 1883.23 471.477C1883.1 475.253 1883.03 479.484 1883.03 484.172C1891.62 485.214 1901 485.734 1911.16 485.734H1916.82Z" fill="#80CAEF"/>
</svg>
