<svg width="1398" height="308" viewBox="0 0 1398 308" fill="none" xmlns="http://www.w3.org/2000/svg">
<path d="M4.05469 260.227C4.05469 253.586 5.29167 246.88 7.76562 240.109C10.2396 233.339 14.0807 226.958 19.2891 220.969C38.2995 229.302 54.8359 235.682 68.8984 240.109C83.0911 244.536 97.6745 246.75 112.648 246.75C115.383 246.75 118.182 246.49 121.047 245.969C124.042 245.448 126.385 244.732 128.078 243.82C128.729 242.388 129.25 240.565 129.641 238.352C130.031 236.008 130.227 234.12 130.227 232.688C130.227 226.307 127.167 220.839 121.047 216.281C114.927 211.724 106.854 207.167 96.8281 202.609L89.9922 199.289C70.4609 189.263 54.7708 180.279 42.9219 172.336C31.2031 164.263 21.2422 153.716 13.0391 140.695C4.96615 127.544 0.929688 111.464 0.929688 92.4531C0.929688 64.5885 8.67708 42.2578 24.1719 25.4609C39.7969 8.66406 64.6016 0.265625 98.5859 0.265625C127.622 0.265625 150.604 2.02344 167.531 5.53906C174.562 9.70573 180.682 14.0677 185.891 18.625C191.229 23.0521 196.307 28.4557 201.125 34.8359C201.125 43.9505 200.214 53.8464 198.391 64.5234C196.698 75.0703 194.289 84.7708 191.164 93.625C188.169 102.479 184.914 108.859 181.398 112.766C178.404 114.198 175.083 115.305 171.438 116.086C167.792 116.737 163.299 117.062 157.961 117.062C152.362 117.062 147.805 116.672 144.289 115.891C140.773 115.109 137.518 113.807 134.523 111.984L128.469 71.3594C120.917 69.276 112.909 67.7786 104.445 66.8672C95.9818 65.8255 90.2526 65.3698 87.2578 65.5C82.4401 67.7135 79.1198 70.8385 77.2969 74.875C75.6042 78.7812 74.7578 83.4688 74.7578 88.9375C74.7578 94.7969 76.3203 99.875 79.4453 104.172C82.7005 108.339 86.6068 111.789 91.1641 114.523C95.7214 117.258 101.581 120.318 108.742 123.703L117.336 128C135.956 137.766 150.604 146.294 161.281 153.586C171.958 160.878 180.878 170.122 188.039 181.32C195.331 192.388 198.977 205.799 198.977 221.555C198.977 239.914 194.159 255.734 184.523 269.016C174.888 282.167 162.518 291.672 147.414 297.531C139.211 300.786 130.161 303.13 120.266 304.562C110.37 305.995 98.9115 306.711 85.8906 306.711C77.0365 306.711 67.5312 305.604 57.375 303.391C47.2188 301.177 37.3229 297.271 27.6875 291.672C18.1823 286.073 10.5651 278.586 4.83594 269.211C4.3151 266.737 4.05469 263.742 4.05469 260.227ZM248.195 293.43C248.195 287.831 247.935 271.229 247.414 243.625C246.372 203.26 245.852 168.365 245.852 138.938C245.852 110.161 246.372 85.8125 247.414 65.8906L215.578 61.7891C213.625 53.8464 212.323 47.2708 211.672 42.0625C211.021 36.724 210.76 30.6042 210.891 23.7031C213.495 20.4479 218.312 16.9974 225.344 13.3516C232.505 9.57552 240.578 6.45052 249.562 3.97656C258.677 1.5026 267.466 0.265625 275.93 0.265625C291.034 0.265625 303.339 3.65104 312.844 10.4219C322.479 17.1927 327.557 26.9583 328.078 39.7188C328.339 47.2708 328.469 53.7161 328.469 59.0547C328.469 83.6641 327.427 113.352 325.344 148.117C323.26 182.753 320.461 223.703 316.945 270.969L314.992 298.508C304.706 304.237 292.987 307.102 279.836 307.102C268.638 307.102 258.091 305.083 248.195 301.047V293.43ZM383.352 147.922C383.352 117.844 383.872 91.151 384.914 67.8438L358.547 63.7422C356.854 58.9245 355.552 53.5859 354.641 47.7266C353.729 41.8672 353.273 36.2031 353.273 30.7344C353.273 26.5677 353.599 22.0104 354.25 17.0625C371.307 11.0729 393.833 6.77604 421.828 4.17188C449.823 1.56771 477.167 0.265625 503.859 0.265625C523.781 0.265625 540.904 1.82812 555.227 4.95312C569.549 8.07812 581.529 15.1745 591.164 26.2422C600.93 37.1797 605.812 53.5859 605.812 75.4609C605.812 84.4453 604.38 94.4062 601.516 105.344C598.651 116.151 594.68 126.958 589.602 137.766C584.914 147.661 579.576 157.102 573.586 166.086C567.727 174.94 561.607 182.557 555.227 188.938C559.003 198.833 562.909 207.883 566.945 216.086C570.982 224.159 577.167 233.99 585.5 245.578L612.844 234.055C623 242.779 628.924 254.367 630.617 268.82C630.617 269.602 627.492 273.312 621.242 279.953C615.122 286.594 607.115 292.779 597.219 298.508C587.323 304.107 576.19 306.906 563.82 306.906C554.185 306.906 545.526 305.214 537.844 301.828C530.292 298.443 524.042 292.518 519.094 284.055C514.276 275.721 510.435 265.826 507.57 254.367C504.706 242.909 502.688 231.581 501.516 220.383L456.984 218.43C458.156 228.586 459.654 239.068 461.477 249.875C463.299 260.552 464.406 266.997 464.797 269.211C467.01 282.102 468.443 290.891 469.094 295.578C463.104 299.224 455.812 302.023 447.219 303.977C438.755 305.93 430.096 306.906 421.242 306.906C411.086 306.906 401.255 305.539 391.75 302.805C388.885 291.346 386.737 271.294 385.305 242.648C384.003 213.872 383.352 182.297 383.352 147.922ZM504.836 171.359C509.393 158.339 512.974 144.211 515.578 128.977C518.312 113.612 520.786 95.3177 523 74.0938C519.224 72.6615 514.276 71.5547 508.156 70.7734C502.036 69.9922 496.112 69.6016 490.383 69.6016C477.362 69.6016 467.596 69.9271 461.086 70.5781C459.654 119.536 458.091 154.237 456.398 174.68L504.836 171.359ZM638.234 240.305C646.177 242.909 653.404 244.992 659.914 246.555C672.544 195.773 686.932 135.812 703.078 66.6719L656.008 61.5938C653.013 53.3906 651.516 44.0807 651.516 33.6641C651.516 25.7214 652.427 17.974 654.25 10.4219C673.13 6.77604 694.875 4.17188 719.484 2.60938C744.224 0.916667 765.448 0.0703125 783.156 0.0703125C795.917 0.0703125 805.487 0.135417 811.867 0.265625L824.172 7.29688C846.047 67.3229 868.247 148.508 890.773 250.852C891.034 251.893 891.49 253.977 892.141 257.102C892.922 260.227 893.508 263.221 893.898 266.086C894.289 268.82 894.484 271.424 894.484 273.898C894.484 284.836 890.578 293.69 882.766 300.461C871.828 304.758 858.612 306.906 843.117 306.906C835.826 306.906 828.469 306.125 821.047 304.562C813.625 303 808.612 300.591 806.008 297.336L808.352 246.945L803.469 220.773C795.005 221.294 785.044 221.555 773.586 221.555C761.346 221.555 749.888 221.164 739.211 220.383L736.867 230.93C731.789 253.586 727.622 269.667 724.367 279.172C721.242 288.677 716.555 295.708 710.305 300.266C704.185 304.823 695.005 307.102 682.766 307.102C674.823 307.102 666.815 306.06 658.742 303.977C650.669 302.023 643.378 299.354 636.867 295.969C630.357 292.583 625.474 288.938 622.219 285.031C622.219 275.656 623.651 266.737 626.516 258.273C629.38 249.81 633.286 243.82 638.234 240.305ZM775.148 68.4297H766.164L752.102 164.719H795.852L775.148 68.4297ZM959.523 236.594C969.029 240.37 976.516 243.299 981.984 245.383C987.453 247.466 993.182 249.289 999.172 250.852C1000.86 246.555 1001.71 240.695 1001.71 233.273C1001.71 223.247 1000.99 204.888 999.562 178.195C997.479 142.518 996.438 115.174 996.438 96.1641C996.438 83.013 996.828 71.6849 997.609 62.1797L965.383 60.2266L964.797 121.75C955.031 125.005 944.029 126.633 931.789 126.633C928.664 126.633 926.32 126.568 924.758 126.438C920.461 123.052 915.969 117.714 911.281 110.422C906.724 103.13 902.948 94.9271 899.953 85.8125C896.958 76.6979 895.461 67.9089 895.461 59.4453C895.461 44.862 897.87 33.7292 902.688 26.0469C907.505 18.3646 914.276 13.0911 923 10.2266C931.724 7.23177 943.378 5.27865 957.961 4.36719C980.617 3.0651 1007.24 2.08854 1037.84 1.4375C1068.57 0.65625 1097.93 0.265625 1125.93 0.265625C1129.71 5.08333 1132.51 10.487 1134.33 16.4766C1136.28 22.4661 1137.26 28.4557 1137.26 34.4453C1137.26 45.6432 1134.39 55.0182 1128.66 62.5703C1122.93 70.1224 1114.47 73.8984 1103.27 73.8984C1095.98 73.8984 1087.19 72.5964 1076.91 69.9922C1074.56 131.19 1071.18 187.701 1066.75 239.523C1065.84 249.549 1064.34 258.404 1062.26 266.086C1060.17 273.768 1056.98 280.474 1052.69 286.203C1047.35 293.234 1039.99 298.443 1030.62 301.828C1021.24 305.214 1010.89 306.906 999.562 306.906C988.885 306.906 978.339 305.018 967.922 301.242C957.635 297.466 949.888 290.5 944.68 280.344C944.81 271.88 945.852 264.393 947.805 257.883C949.758 251.242 953.664 244.146 959.523 236.594ZM1132.18 60.0312C1129.84 52.6094 1128.21 47.3359 1127.3 44.2109C1126.52 40.9557 1125.93 37.5052 1125.54 33.8594C1125.28 30.0833 1125.15 24.6146 1125.15 17.4531C1136.09 11.3333 1146.31 6.97135 1155.81 4.36719C1165.45 1.63281 1176.32 0.265625 1188.43 0.265625C1224.5 0.265625 1242.53 18.2995 1242.53 54.3672C1242.53 65.6953 1241.36 82.4922 1239.02 104.758C1236.8 127.023 1233.87 153.977 1230.23 185.617C1228.01 203.977 1226.39 218.234 1225.34 228.391C1227.82 231.125 1230.75 232.883 1234.13 233.664C1235.96 234.445 1241.36 231.451 1250.34 224.68C1259.46 217.779 1268.7 209.576 1278.08 200.07C1287.58 190.435 1294.35 181.776 1298.39 174.094C1294.74 103.781 1289.08 51.8281 1281.4 18.2344C1287.26 12.375 1294.88 7.94792 1304.25 4.95312C1313.62 1.82812 1322.74 0.265625 1331.59 0.265625C1339.15 0.265625 1346.37 1.11198 1353.27 2.80469C1360.3 4.36719 1366.36 7.03646 1371.44 10.8125C1375.47 19.6667 1377.49 34.1849 1377.49 54.3672C1377.49 65.5651 1376.39 83.9245 1374.17 109.445C1372.09 134.836 1369.42 160.031 1366.16 185.031C1363.04 209.901 1359.98 228 1356.98 239.328L1381.01 228.781C1385.04 232.948 1388.62 238.221 1391.75 244.602C1394.88 250.852 1396.89 258.013 1397.8 266.086C1395.72 270.253 1391.42 275.591 1384.91 282.102C1378.4 288.612 1370.4 294.406 1360.89 299.484C1351.52 304.432 1341.62 306.906 1331.2 306.906C1319.61 306.906 1310.7 303.456 1304.45 296.555C1298.33 289.654 1295.27 280.799 1295.27 269.992C1295.27 267.388 1295.79 261.724 1296.83 253C1298 244.276 1299.04 238.872 1299.95 236.789L1294.09 234.836C1287.06 248.768 1279.71 260.943 1272.02 271.359C1264.47 281.776 1255.49 290.305 1245.07 296.945C1234.65 303.586 1222.8 306.906 1209.52 306.906C1188.82 306.906 1174.3 299.549 1165.97 284.836C1157.64 269.992 1153.47 251.438 1153.47 229.172C1153.47 202.219 1153.79 171.424 1154.45 136.789C1155.1 102.154 1156.14 77.6094 1157.57 63.1562L1132.18 60.0312Z" fill="#80CAEF"/>
</svg>
