<svg width="1271" height="308" viewBox="0 0 1271 308" fill="none" xmlns="http://www.w3.org/2000/svg">
<path d="M3.54688 260.227C3.54688 253.586 4.78385 246.88 7.25781 240.109C9.73177 233.339 13.5729 226.958 18.7812 220.969C37.7917 229.302 54.3281 235.682 68.3906 240.109C82.5833 244.536 97.1667 246.75 112.141 246.75C114.875 246.75 117.674 246.49 120.539 245.969C123.534 245.448 125.878 244.732 127.57 243.82C128.221 242.388 128.742 240.565 129.133 238.352C129.523 236.008 129.719 234.12 129.719 232.688C129.719 226.307 126.659 220.839 120.539 216.281C114.419 211.724 106.346 207.167 96.3203 202.609L89.4844 199.289C69.9531 189.263 54.263 180.279 42.4141 172.336C30.6953 164.263 20.7344 153.716 12.5312 140.695C4.45833 127.544 0.421875 111.464 0.421875 92.4531C0.421875 64.5885 8.16927 42.2578 23.6641 25.4609C39.2891 8.66406 64.0938 0.265625 98.0781 0.265625C127.115 0.265625 150.096 2.02344 167.023 5.53906C174.055 9.70573 180.174 14.0677 185.383 18.625C190.721 23.0521 195.799 28.4557 200.617 34.8359C200.617 43.9505 199.706 53.8464 197.883 64.5234C196.19 75.0703 193.781 84.7708 190.656 93.625C187.661 102.479 184.406 108.859 180.891 112.766C177.896 114.198 174.576 115.305 170.93 116.086C167.284 116.737 162.792 117.062 157.453 117.062C151.854 117.062 147.297 116.672 143.781 115.891C140.266 115.109 137.01 113.807 134.016 111.984L127.961 71.3594C120.409 69.276 112.401 67.7786 103.938 66.8672C95.474 65.8255 89.7448 65.3698 86.75 65.5C81.9323 67.7135 78.612 70.8385 76.7891 74.875C75.0964 78.7812 74.25 83.4688 74.25 88.9375C74.25 94.7969 75.8125 99.875 78.9375 104.172C82.1927 108.339 86.099 111.789 90.6562 114.523C95.2135 117.258 101.073 120.318 108.234 123.703L116.828 128C135.448 137.766 150.096 146.294 160.773 153.586C171.451 160.878 180.37 170.122 187.531 181.32C194.823 192.388 198.469 205.799 198.469 221.555C198.469 239.914 193.651 255.734 184.016 269.016C174.38 282.167 162.01 291.672 146.906 297.531C138.703 300.786 129.654 303.13 119.758 304.562C109.862 305.995 98.4036 306.711 85.3828 306.711C76.5286 306.711 67.0234 305.604 56.8672 303.391C46.7109 301.177 36.8151 297.271 27.1797 291.672C17.6745 286.073 10.0573 278.586 4.32812 269.211C3.80729 266.737 3.54688 263.742 3.54688 260.227ZM247.688 293.43C247.688 287.831 247.427 271.229 246.906 243.625C245.865 203.26 245.344 168.365 245.344 138.938C245.344 110.161 245.865 85.8125 246.906 65.8906L215.07 61.7891C213.117 53.8464 211.815 47.2708 211.164 42.0625C210.513 36.724 210.253 30.6042 210.383 23.7031C212.987 20.4479 217.805 16.9974 224.836 13.3516C231.997 9.57552 240.07 6.45052 249.055 3.97656C258.169 1.5026 266.958 0.265625 275.422 0.265625C290.526 0.265625 302.831 3.65104 312.336 10.4219C321.971 17.1927 327.049 26.9583 327.57 39.7188C327.831 47.2708 327.961 53.7161 327.961 59.0547C327.961 83.6641 326.919 113.352 324.836 148.117C322.753 182.753 319.953 223.703 316.438 270.969L314.484 298.508C304.198 304.237 292.479 307.102 279.328 307.102C268.13 307.102 257.583 305.083 247.688 301.047V293.43ZM382.844 147.922C382.844 117.844 383.365 91.151 384.406 67.8438L358.039 63.7422C356.346 58.9245 355.044 53.5859 354.133 47.7266C353.221 41.8672 352.766 36.2031 352.766 30.7344C352.766 26.5677 353.091 22.0104 353.742 17.0625C370.799 11.0729 393.326 6.77604 421.32 4.17188C449.315 1.56771 476.659 0.265625 503.352 0.265625C523.273 0.265625 540.396 1.82812 554.719 4.95312C569.042 8.07812 581.021 15.1745 590.656 26.2422C600.422 37.1797 605.305 53.5859 605.305 75.4609C605.305 84.4453 603.872 94.4062 601.008 105.344C598.143 116.151 594.172 126.958 589.094 137.766C584.406 147.661 579.068 157.102 573.078 166.086C567.219 174.94 561.099 182.557 554.719 188.938C558.495 198.833 562.401 207.883 566.438 216.086C570.474 224.159 576.659 233.99 584.992 245.578L612.336 234.055C622.492 242.779 628.417 254.367 630.109 268.82C630.109 269.602 626.984 273.312 620.734 279.953C614.615 286.594 606.607 292.779 596.711 298.508C586.815 304.107 575.682 306.906 563.312 306.906C553.677 306.906 545.018 305.214 537.336 301.828C529.784 298.443 523.534 292.518 518.586 284.055C513.768 275.721 509.927 265.826 507.062 254.367C504.198 242.909 502.18 231.581 501.008 220.383L456.477 218.43C457.648 228.586 459.146 239.068 460.969 249.875C462.792 260.552 463.898 266.997 464.289 269.211C466.503 282.102 467.935 290.891 468.586 295.578C462.596 299.224 455.305 302.023 446.711 303.977C438.247 305.93 429.589 306.906 420.734 306.906C410.578 306.906 400.747 305.539 391.242 302.805C388.378 291.346 386.229 271.294 384.797 242.648C383.495 213.872 382.844 182.297 382.844 147.922ZM504.328 171.359C508.885 158.339 512.466 144.211 515.07 128.977C517.805 113.612 520.279 95.3177 522.492 74.0938C518.716 72.6615 513.768 71.5547 507.648 70.7734C501.529 69.9922 495.604 69.6016 489.875 69.6016C476.854 69.6016 467.089 69.9271 460.578 70.5781C459.146 119.536 457.583 154.237 455.891 174.68L504.328 171.359ZM637.727 240.305C645.669 242.909 652.896 244.992 659.406 246.555C672.036 195.773 686.424 135.812 702.57 66.6719L655.5 61.5938C652.505 53.3906 651.008 44.0807 651.008 33.6641C651.008 25.7214 651.919 17.974 653.742 10.4219C672.622 6.77604 694.367 4.17188 718.977 2.60938C743.716 0.916667 764.94 0.0703125 782.648 0.0703125C795.409 0.0703125 804.979 0.135417 811.359 0.265625L823.664 7.29688C845.539 67.3229 867.74 148.508 890.266 250.852C890.526 251.893 890.982 253.977 891.633 257.102C892.414 260.227 893 263.221 893.391 266.086C893.781 268.82 893.977 271.424 893.977 273.898C893.977 284.836 890.07 293.69 882.258 300.461C871.32 304.758 858.104 306.906 842.609 306.906C835.318 306.906 827.961 306.125 820.539 304.562C813.117 303 808.104 300.591 805.5 297.336L807.844 246.945L802.961 220.773C794.497 221.294 784.536 221.555 773.078 221.555C760.839 221.555 749.38 221.164 738.703 220.383L736.359 230.93C731.281 253.586 727.115 269.667 723.859 279.172C720.734 288.677 716.047 295.708 709.797 300.266C703.677 304.823 694.497 307.102 682.258 307.102C674.315 307.102 666.307 306.06 658.234 303.977C650.161 302.023 642.87 299.354 636.359 295.969C629.849 292.583 624.966 288.938 621.711 285.031C621.711 275.656 623.143 266.737 626.008 258.273C628.872 249.81 632.779 243.82 637.727 240.305ZM774.641 68.4297H765.656L751.594 164.719H795.344L774.641 68.4297ZM913.508 153.781C913.508 124.094 917.805 97.7917 926.398 74.875C934.992 51.8281 948.534 33.6641 967.023 20.3828C985.643 6.97135 1009.28 0.265625 1037.92 0.265625C1048.08 0.265625 1059.08 0.916667 1070.93 2.21875C1082.78 3.39062 1094.37 5.27865 1105.7 7.88281C1112.73 12.0495 1118.85 16.4115 1124.05 20.9688C1129.39 25.3958 1134.47 30.7995 1139.29 37.1797C1139.29 46.4245 1138.05 58.6641 1135.58 73.8984C1133.1 89.1328 1129.98 103.326 1126.2 116.477C1122.56 129.628 1119.04 138.156 1115.66 142.062C1112.27 143.755 1109.41 144.927 1107.06 145.578C1104.72 146.099 1101.07 146.359 1096.12 146.359C1090.01 146.359 1084.28 145.904 1078.94 144.992C1073.6 144.081 1069.56 142.844 1066.83 141.281L1059.99 75.4609C1050.75 72.8568 1035.97 71.5547 1015.66 71.5547C1011.23 71.5547 1007.97 71.6198 1005.89 71.75C1000.29 89.7188 997.167 113.872 996.516 144.211V151.828C996.516 171.229 997.753 188.352 1000.23 203.195C1001.92 212.961 1003.35 220.448 1004.52 225.656C1005.83 230.865 1007.39 234.901 1009.21 237.766C1011.16 240.5 1013.57 241.867 1016.44 241.867C1026.59 241.867 1035.64 238.352 1043.59 231.32C1051.66 224.289 1058.56 215.305 1064.29 204.367L1059.02 176.438C1076.07 170.708 1092.93 167.779 1109.6 167.648C1117.67 167.648 1124.71 168.56 1130.7 170.383C1136.68 172.206 1140.72 175.786 1142.8 181.125C1140.33 200.396 1136.36 224.029 1130.89 252.023C1125.42 280.018 1121.32 297.01 1118.59 303C1110.25 305.604 1102.18 306.906 1094.37 306.906C1090.33 306.906 1086.03 306.581 1081.48 305.93C1077.05 305.279 1073.14 304.302 1069.76 303C1069.76 298.703 1069.37 288.482 1068.59 272.336L1068 257.883L1062.73 256.32C1053.74 271.424 1043.65 283.664 1032.45 293.039C1021.26 302.284 1009.08 306.906 995.93 306.906C979.003 306.906 964.354 300.656 951.984 288.156C939.615 275.656 930.109 257.883 923.469 234.836C916.828 211.659 913.508 184.641 913.508 153.781ZM1190.66 293.43C1190.66 287.831 1190.4 271.229 1189.88 243.625C1188.83 203.26 1188.31 168.365 1188.31 138.938C1188.31 110.161 1188.83 85.8125 1189.88 65.8906L1158.04 61.7891C1156.09 53.8464 1154.78 47.2708 1154.13 42.0625C1153.48 36.724 1153.22 30.6042 1153.35 23.7031C1155.96 20.4479 1160.77 16.9974 1167.8 13.3516C1174.97 9.57552 1183.04 6.45052 1192.02 3.97656C1201.14 1.5026 1209.93 0.265625 1218.39 0.265625C1233.49 0.265625 1245.8 3.65104 1255.3 10.4219C1264.94 17.1927 1270.02 26.9583 1270.54 39.7188C1270.8 47.2708 1270.93 53.7161 1270.93 59.0547C1270.93 83.6641 1269.89 113.352 1267.8 148.117C1265.72 182.753 1262.92 223.703 1259.41 270.969L1257.45 298.508C1247.17 304.237 1235.45 307.102 1222.3 307.102C1211.1 307.102 1200.55 305.083 1190.66 301.047V293.43Z" fill="#80CAEF"/>
</svg>
